Coordinates
version=1
nRows=11
nColumns=36
inDegrees=yes

Units are S.I. units (second, meters, Newtons, ...)
If the header above contains a line with 'inDegrees', this indicates whether rotational values are in degrees (yes) or radians (no).

endheader
time	pelvis_tilt	pelvis_list	pelvis_rotation	pelvis_tx	pelvis_ty	pelvis_tz	hip_flexion_r	hip_adduction_r	hip_rotation_r	knee_angle_r	knee_angle_r_beta	ankle_angle_r	subtalar_angle_r	mtp_angle_r	hip_flexion_l	hip_adduction_l	hip_rotation_l	knee_angle_l	knee_angle_l_beta	ankle_angle_l	subtalar_angle_l	mtp_angle_l	lumbar_extension	lumbar_bending	lumbar_rotation	arm_flex_r	arm_add_r	arm_rot_r	elbow_flex_r	pro_sup_r	arm_flex_l	arm_add_l	arm_rot_l	elbow_flex_l	pro_sup_l
      0.00000000	     13.19205533	    -10.01726316	     -2.59856499	      1.60644283	      0.93540422	     -0.19770642	     33.96893320	     10.55518859	      1.84240693	     21.41675853	      0.37379295	     -3.69344339	    -15.65616276	     -6.94632267	     -8.45924671	     -6.03748860	     -9.00395285	     19.31603396	      0.33712839	     13.65428105	      0.60853744	     -6.94632267	    -23.32600123	      5.65132984	     -1.13134951	     42.73803999	      1.47739112	     58.61292818	    116.06755403	     77.17662028	     42.99827711	     -8.84305177	     63.24227503	    116.64650048	     84.42288978
      0.01666670	     11.56487353	    -10.38924000	     -0.93783849	      1.60215487	      0.92413288	     -0.19618502	     38.16243487	      9.77036318	     -0.13319287	     21.13037694	      0.36879465	      3.92789811	     -2.14224296	     -7.16625842	     -3.45623842	     -8.21073281	    -12.40784632	     25.05471910	      0.43728734	     13.66051688	     -1.73764402	     -7.16625842	    -22.32309448	      5.93228363	      0.52687057	     44.74826022	     -1.44527026	     64.86601804	    124.31299391	     89.91226327	     47.50971106	     -8.58815897	     63.87430995	    119.37993063	     97.32968156
      0.03333330	     10.59999719	    -10.27899092	     -0.77740048	      1.60799167	      0.91684022	     -0.19640593	     40.42085571	      9.46691906	     -2.00533057	     22.07192978	      0.38522785	      7.43173056	      0.53483505	     -7.23499830	     -0.11812903	     -8.85572852	    -13.90674721	     30.10443672	      0.52542154	     15.93030236	     -4.91686543	     -7.23499830	    -20.52265486	      6.15421584	      0.27139227	     45.62590945	     -0.02483688	     64.50926011	    124.37735187	     92.23341755	     47.98105801	     -9.28476057	     63.68365528	    119.64541365	    102.14424680
      0.05000000	     11.04586739	     -9.63551927	      0.66818052	      1.60287327	      0.91314505	     -0.19385620	     41.65743516	      7.78257250	     -3.62244456	     25.30039400	      0.44157518	      9.53484475	      1.23289047	     -7.24226057	      1.72687561	     -8.31580344	    -12.60831111	     33.51998996	      0.58503419	     19.61318090	     -3.67729919	     -7.24226057	    -20.91644844	      5.68060477	     -0.85370838	     46.97954193	      0.95660110	     64.41447671	    123.45643710	     92.34212446	     50.00915147	     -9.33381323	     64.47977901	    118.96568452	    102.38214204
      0.06666670	     11.20592015	     -7.92482081	      1.48699444	      1.59836920	      0.90869257	     -0.19582386	     43.73007271	      5.57869262	     -3.66425777	     29.44007908	      0.51382631	      8.71716136	      1.09754251	     -7.27307226	      3.70371131	     -6.30345648	    -11.24604317	     36.64121862	      0.63950991	     22.57536139	     -3.12522050	     -7.27307226	    -21.88271564	      3.88916135	     -1.56295880	     48.53222181	      1.54731638	     64.98699095	    123.05095833	     90.80028705	     52.49665936	     -8.86083131	     65.20180928	    118.92942725	    100.76006931
      0.08333330	     11.82290786	     -5.85584822	      1.95299606	      1.59250499	      0.90734567	     -0.19177127	     45.01199772	      3.60290415	     -2.51376009	     32.41389481	      0.56572919	      5.71614293	      0.06554755	     -7.28224735	      4.74701738	     -4.04779474	    -10.69529932	     39.02696876	      0.68114910	     24.57147716	     -2.48995262	     -7.28224735	    -23.69513739	      1.48956050	     -1.96058109	     50.08401413	      2.13195279	     64.88595545	    122.12721001	     90.90372085	     55.45327099	     -8.64056028	     65.71790615	    118.47645619	    100.74440619
      0.10000000	     12.34912636	     -3.70945474	      2.32337374	      1.58717417	      0.90509688	     -0.19228647	     45.88685964	      1.79466475	     -0.68010230	     34.29088880	      0.59848891	      2.65940793	     -0.85505427	     -7.30103671	      5.72743662	     -1.75543678	    -10.33729180	     41.11309176	      0.71755882	     25.60725685	     -2.22196697	     -7.30103671	    -25.53408972	     -0.91517035	     -2.48393655	     51.54957841	      2.50236049	     64.64382648	    121.63498149	     89.76424544	     58.23533303	     -8.48431897	     65.88938713	    118.31088315	     99.52854026
      0.11666670	     12.71629632	     -1.89144881	      2.48859190	      1.58474615	      0.90145871	     -0.19058687	     46.63983724	      0.46449967	      1.24700395	     35.64948235	      0.62220084	      0.32858903	     -1.82388481	     -7.32224717	      6.64242146	      0.14630040	    -10.18783946	     42.99557215	      0.75041430	     26.34758630	     -2.20702749	     -7.32224717	    -26.98716931	     -2.86781954	     -2.72047750	     52.84194286	      2.94345889	     64.06363835	    120.87490855	     88.40032778	     60.59621543	     -8.48187896	     65.95933692	    117.96123972	     97.77967674
      0.13333330	     12.99444896	     -0.52387436	      2.60215462	      1.58288733	      0.89540599	     -0.18912833	     47.17055278	     -0.54606713	      2.78355154	     36.57663208	      0.63838266	     -0.94695586	     -1.92647736	     -7.32504225	      7.71458789	      1.62758508	     -9.71100531	     44.84893438	      0.78276157	     27.16460961	     -2.13467427	     -7.32504225	    -28.43790170	     -4.17162675	     -2.99691367	     54.08176849	      3.37805534	     63.79639028	    120.56493596	     88.30417788	     62.38764386	     -8.59397771	     65.62887894	    117.57239143	     97.55177851
      0.15000000	     12.47128190	      0.99079327	      2.46223527	      1.58110583	      0.88821494	     -0.18800437	     48.75603173	     -1.35776738	      4.87473837	     37.78689173	      0.65950567	     -1.78317937	     -2.45842785	     -7.35455810	      9.62830153	      3.25190292	     -9.59565672	     46.74539842	      0.81586111	     27.61079511	     -2.42886447	     -7.35455810	    -28.88651220	     -5.83035920	     -3.17973569	     54.63174977	      3.41706642	     64.00290469	    120.09598897	     85.84933961	     63.81398912	     -8.77948225	     66.59046796	    117.75530367	     94.54079958
      0.16666670	     12.21790297	      2.54866797	      2.51475665	      1.57197963	      0.88286295	     -0.18632256	     50.12774177	     -2.32360386	      6.58866228	     38.93266175	      0.67950313	     -2.74673207	     -2.77921713	     -7.35940920	     11.61640359	      4.90805761	     -9.46056257	     48.88716777	      0.85324204	     27.76700679	     -3.19538551	     -7.35940920	    -29.99881237	     -7.47693588	     -3.70277300	     56.02045840	      3.76711229	     63.82640482	    118.97998275	     86.03532006	     66.42764813	     -8.86937170	     67.75059960	    117.46279902	     94.46253299
